<svg xmlns="http://www.w3.org/2000/svg" viewBox="0 0 1440 280" preserveAspectRatio="xMidYMid slice">
  <defs>
    <linearGradient id="csGrad" x1="0%" y1="0%" x2="100%" y2="100%">
      <stop offset="0%" style="stop-color:#0f2d08;stop-opacity:1"/>
      <stop offset="40%" style="stop-color:#1a4210;stop-opacity:1"/>
      <stop offset="100%" style="stop-color:#2D5016;stop-opacity:1"/>
    </linearGradient>
    <radialGradient id="csGlow" cx="70%" cy="50%" r="50%">
      <stop offset="0%" style="stop-color:#4E8A28;stop-opacity:0.3"/>
      <stop offset="100%" style="stop-color:#4E8A28;stop-opacity:0"/>
    </radialGradient>
  </defs>
  <rect width="1440" height="280" fill="url(#csGrad)"/>
  <rect width="1440" height="280" fill="url(#csGlow)"/>
  <circle cx="1100" cy="140" r="300" fill="#3A6B1E" opacity="0.12"/>
  <circle cx="1400" cy="-50" r="200" fill="#4E8A28" opacity="0.15"/>
  <circle cx="50"   cy="350" r="180" fill="#4E8A28" opacity="0.10"/>
  <pattern id="dots2" x="0" y="0" width="30" height="30" patternUnits="userSpaceOnUse">
    <circle cx="2" cy="2" r="1.5" fill="#A8CC7A" opacity="0.10"/>
  </pattern>
  <rect width="1440" height="280" fill="url(#dots2)"/>
  <!-- headset icon suggestion -->
  <g opacity="0.07" fill="none" stroke="#A8CC7A" stroke-width="12" transform="translate(1180, 80)">
    <path d="M30 0 C30 -16 54 -16 54 0"/>
    <rect x="10" y="0" width="20" height="34" rx="10"/>
    <rect x="54" y="0" width="20" height="34" rx="10"/>
    <path d="M84 34 C84 60 0 60 0 34" fill="none"/>
    <circle cx="42" cy="80" r="8" fill="#A8CC7A"/>
  </g>
</svg>
